<svg width="179" height="179" viewBox="0 0 179 179" fill="none" xmlns="http://www.w3.org/2000/svg">    <path d="M153.142 0.0217285H26.442C12.2759 0.0217285 0.791992 11.5056 0.791992 25.6717V152.372C0.791992 166.538 12.2759 178.022 26.442 178.022H153.142C167.308 178.022 178.792 166.538 178.792 152.372V25.6717C178.792 11.5056 167.308 0.0217285 153.142 0.0217285Z" fill="#50B79B"/>    <path fill-rule="evenodd" clip-rule="evenodd" d="M60.6818 42.8617C51.2654 42.8617 43.6318 50.4952 43.6318 59.9117C43.6318 69.3282 51.2654 76.9617 60.6818 76.9617C70.0983 76.9617 77.7318 69.3281 77.7318 59.9117C77.7318 50.4952 70.0983 42.8617 60.6818 42.8617ZM31.6318 59.9117C31.6318 43.8678 44.638 30.8617 60.6818 30.8617C76.7257 30.8617 89.7318 43.8678 89.7318 59.9117C89.7318 75.9556 76.7257 88.9617 60.6818 88.9617C44.638 88.9617 31.6318 75.9556 31.6318 59.9117Z" fill="white"/>    <path fill-rule="evenodd" clip-rule="evenodd" d="M118.902 101.082C109.485 101.082 101.852 108.715 101.852 118.132C101.852 127.548 109.485 135.182 118.902 135.182C128.318 135.182 135.952 127.548 135.952 118.132C135.952 108.715 128.318 101.082 118.902 101.082ZM89.8516 118.132C89.8516 102.088 102.858 89.0818 118.902 89.0818C134.945 89.0818 147.952 102.088 147.952 118.132C147.952 134.176 134.945 147.182 118.902 147.182C102.858 147.182 89.8516 134.176 89.8516 118.132Z" fill="white"/>    <path fill-rule="evenodd" clip-rule="evenodd" d="M83.6249 74.3691L106.865 97.6091L98.3797 106.094L75.1396 82.8544L83.6249 74.3691Z" fill="white"/></svg>